# xmcd
#
# Track frame offsets: 
#        150
#        15632
#        28875
#        50100
#        74848
#        95083
#        115654
#        140273
#        163689
#        179654
#        206320
#        226633
#        250023
#
# Disc length: 3566 seconds
#
# Revision: 1
# Processed by: cddbd v1.5.2PL0 Copyright (c) Steve Scherf et al.
# Submitted via: ExactAudioCopy v0.99pb4
#
DISCID=b50dec0d
DTITLE=Rockin' Dopsie, Jr. - Rockin' Zydeco party
DYEAR=2002
DGENRE=Reggae
TTITLE0=Down at the Mardi Gras
TTITLE1=Mother in law
TTITLE2=Mustang Sally
TTITLE3=Come together
TTITLE4=Boogie woogie Zydeco man
TTITLE5=Fire
TTITLE6=Reggae woman
TTITLE7=Tired of crying over you
TTITLE8=Funky butt
TTITLE9=Key to the highway
TTITLE10=Night time is the right time
TTITLE11=Zydeco stomp
TTITLE12=Down to the bayou
EXTD=
EXTT0=
EXTT1=
EXTT2=
EXTT3=
EXTT4=
EXTT5=
EXTT6=
EXTT7=
EXTT8=
EXTT9=
EXTT10=
EXTT11=
EXTT12=
PLAYORDER=
